HIERARCHY
ROOT Hips
{
 OFFSET 0.000000 0.000000 0.000000
 CHANNELS 6 Xposition Yposition Zposition Yrotation Xrotation Zrotation
 JOINT Chest
 {
  OFFSET 0.000000 10.678932 0.006280
  CHANNELS 3 Yrotation Xrotation Zrotation
  JOINT Chest2
  {
   OFFSET 0.000000 10.491159 -0.011408
   CHANNELS 3 Yrotation Xrotation Zrotation
   JOINT Chest3
   {
    OFFSET 0.000000 9.479342 0.000000
    CHANNELS 3 Yrotation Xrotation Zrotation
    JOINT Chest4
    {
     OFFSET 0.000000 9.479342 0.000000
     CHANNELS 3 Yrotation Xrotation Zrotation
     JOINT Neck
     {
      OFFSET 0.000000 13.535332 0.000000
      CHANNELS 3 Yrotation Xrotation Zrotation
      JOINT Head
      {
       OFFSET 0.000000 8.819083 -0.027129
       CHANNELS 3 Yrotation Xrotation Zrotation
       End Site
       {
        OFFSET 0.000000 16.966594 -0.014170
       }
      }
     }
     JOINT RightCollar
     {
      OFFSET -3.012546 7.545150 0.000000
      CHANNELS 3 Yrotation Xrotation Zrotation
      JOINT RightShoulder
      {
       OFFSET -13.683099 0.000000 0.000000
       CHANNELS 3 Yrotation Xrotation Zrotation
       JOINT RightElbow
       {
        OFFSET -26.359998 0.000000 0.000000
        CHANNELS 3 Yrotation Xrotation Zrotation
        JOINT RightWrist
        {
         OFFSET -21.746691 0.000000 0.008601
         CHANNELS 3 Yrotation Xrotation Zrotation
         End Site
         {
          OFFSET -16.348058 0.000000 0.000000
         }
        }
       }
      }
     }
     JOINT LeftCollar
     {
      OFFSET 3.012546 7.545150 0.000000
      CHANNELS 3 Yrotation Xrotation Zrotation
      JOINT LeftShoulder
      {
       OFFSET 13.683099 0.000000 0.000000
       CHANNELS 3 Yrotation Xrotation Zrotation
       JOINT LeftElbow
       {
        OFFSET 26.359998 0.000000 0.000000
        CHANNELS 3 Yrotation Xrotation Zrotation
        JOINT LeftWrist
        {
         OFFSET 21.746691 0.000000 0.008601
         CHANNELS 3 Yrotation Xrotation Zrotation
         End Site
         {
          OFFSET 16.348058 0.000000 0.000000
         }
        }
       }
      }
     }
    }
   }
  }
 }
 JOINT RightHip
 {
  OFFSET -8.622479 -0.030774 -0.003140
  CHANNELS 3 Yrotation Xrotation Zrotation
  JOINT RightKnee
  {
   OFFSET 0.000000 -37.209160 -0.002630
   CHANNELS 3 Yrotation Xrotation Zrotation
   JOINT RightAnkle
   {
    OFFSET 0.000000 -37.343279 -0.058479
    CHANNELS 3 Yrotation Xrotation Zrotation
    JOINT RightToe
    {
     OFFSET 0.000000 -8.903465 15.088070
     CHANNELS 3 Yrotation Xrotation Zrotation
     End Site
     {
      OFFSET 0.000000 -1.471739 6.884388
     }
    }
   }
  }
 }
 JOINT LeftHip
 {
  OFFSET 8.622479 -0.030774 -0.003140
  CHANNELS 3 Yrotation Xrotation Zrotation
  JOINT LeftKnee
  {
   OFFSET 0.000000 -37.209160 -0.002630
   CHANNELS 3 Yrotation Xrotation Zrotation
   JOINT LeftAnkle
   {
    OFFSET 0.000000 -37.343279 -0.058479
    CHANNELS 3 Yrotation Xrotation Zrotation
    JOINT LeftToe
    {
     OFFSET 0.000000 -8.903465 15.088070
     CHANNELS 3 Yrotation Xrotation Zrotation
     End Site
     {
      OFFSET 0.000000 -1.471739 6.884388
     }
    }
   }
  }
 }
}
MOTION
Frames: 14
Frame Time: 0.025000
-0.667786 83.315683 -16.073400 0.000000 -5.826342 0.000000 0.000000 11.116423 0.000000 0.000000 -5.290081 0.000000 0.000000 0.000000 0.000000 0.000000 0.000000 0.000000 0.000000 12.665069 0.000000 0.000000 0.575450 0.000000 0.000000 0.000000 0.000000 0.000000 0.000000 0.000000 2.337306 0.000000 0.000000 -2.337306 0.000000 0.000000 0.000000 0.000000 0.000000 0.000000 0.000000 0.000000 -2.337306 0.000000 0.000000 2.337306 0.000000 0.000000 0.000000 8.578828 0.000000 0.000000 1.905768 0.000000 0.000000 -4.658254 0.000000 0.000000 0.000000 0.000000 0.000000 8.578828 0.000000 0.000000 1.905768 0.000000 0.000000 -4.658254 0.000000 0.000000 0.000000 0.000000
-175.529838 82.277228 -66.927949 68.179206 -8.037345 -0.889211 -3.298920 4.742043 -0.173225 -0.130039 0.211982 0.006163 -0.211644 0.345034 0.009786 -2.820465 4.597969 0.025707 2.774734 15.015153 -0.464958 5.373104 -8.229302 -1.920870 5.734707 -3.436080 -0.163071 13.309839 28.968599 56.929548 95.414842 15.540350 51.371931 30.591637 9.331788 -9.509022 10.460640 -2.275149 6.424067 -30.998241 26.056101 -65.872559 -104.904358 20.710707 -52.550708 -25.839166 12.538982 31.617761 -3.321735 12.296064 -14.872686 -9.534908 1.849518 -0.256255 3.342601 -4.280361 13.080819 0.043823 -0.141088 0.039407 15.496184 15.037324 17.566190 5.655189 -5.763809 0.006264 -3.468387 -2.781332 -16.820761 -0.009231 0.088221 -0.002262
-175.518626 82.275554 -66.929694 68.236617 -8.013594 -0.886564 -3.338794 4.701175 -0.176779 -0.130393 0.212075 0.005896 -0.212214 0.345173 0.009349 -2.826803 4.597282 0.019602 2.727781 15.010116 -0.447064 5.278624 -8.241538 -1.869914 5.760384 -3.432517 -0.167597 13.363033 28.973525 56.918539 95.360272 15.504014 51.337137 30.621553 9.297993 -9.499987 10.447379 -2.277102 6.417624 -31.270649 26.046726 -65.893750 -104.633393 20.631666 -52.307286 -25.871142 12.538139 31.682569 -3.385583 12.317197 -14.879281 -9.542678 1.837425 -0.263507 3.344408 -4.287467 13.079151 0.043389 -0.148373 0.039805 15.299559 15.055854 17.533240 5.798444 -5.720901 0.002712 -3.493028 -2.812895 -16.856879 0.018687 0.084540 0.017279
-175.502486 82.277247 -66.921654 68.228915 -8.036525 -0.886247 -3.324198 4.706286 -0.166726 -0.130441 0.210352 0.005820 -0.212333 0.342435 0.009229 -2.836739 4.574228 0.018499 2.694823 15.054192 -0.425892 5.207207 -8.162151 -1.815780 5.826107 -3.414443 -0.197264 13.361032 28.954876 56.913589 95.336981 15.487989 51.346485 30.669272 9.237695 -9.424511 10.462956 -2.242446 6.413855 -31.359494 26.032135 -65.889000 -104.503944 20.564609 -52.209713 -25.890907 12.543571 31.714282 -3.378281 12.385829 -14.862347 -9.567567 1.824243 -0.282504 3.354862 -4.307823 13.071354 0.043847 -0.144093 0.042665 15.227146 15.109745 17.524080 5.864458 -5.690261 0.013530 -3.444441 -2.802566 -16.856177 -0.003707 0.057741 0.000207
-175.504552 82.277358 -66.920266 68.271225 -7.966910 -0.881297 -3.351677 4.641765 -0.169587 -0.129694 0.208270 0.005628 -0.211178 0.339142 0.008923 -2.833992 4.550396 0.015557 2.654351 15.126646 -0.403838 5.120400 -8.030399 -1.755933 5.849537 -3.437783 -0.195692 13.348753 28.954470 56.888766 95.324023 15.479367 51.355162 30.722547 9.168399 -9.335942 10.459195 -2.230884 6.410580 -31.596566 26.001595 -65.852233 -104.246751 20.421477 -51.945529 -25.891938 12.550219 31.704991 -3.419036 12.354239 -14.869525 -9.575234 1.814998 -0.267364 3.355800 -4.313636 13.059614 0.042740 -0.147338 0.034858 14.986231 15.097558 17.466330 6.040995 -5.658552 0.003647 -3.449796 -2.815110 -16.872859 0.014948 0.052198 0.009919
-175.493399 82.278587 -66.926446 68.275297 -7.960871 -0.875931 -3.334920 4.633326 -0.168637 -0.129244 0.205701 0.005657 -0.210513 0.335068 0.008977 -2.839169 4.518346 0.017381 2.608569 15.228683 -0.390733 5.026064 -7.843471 -1.709635 5.890402 -3.446602 -0.202228 13.351647 28.971713 56.885885 95.291749 15.452133 51.365284 30.765130 9.111976 -9.307068 10.473996 -2.197681 6.418746 -31.777789 25.970732 -65.843271 -104.069108 20.339582 -51.761826 -25.918743 12.552455 31.699906 -3.404495 12.392615 -14.877686 -9.581640 1.804749 -0.259317 3.338383 -4.319591 13.065911 0.040379 -0.149547 0.028016 14.917366 15.135753 17.440228 6.115370 -5.670074 0.000697 -3.428848 -2.792944 -16.855798 -0.011151 0.039275 -0.005689
-175.490321 82.279115 -66.936273 68.287387 -7.932395 -0.876368 -3.320653 4.606541 -0.156776 -0.127972 0.203608 0.005771 -0.208510 0.331768 0.009170 -2.826416 4.496911 0.021543 2.546913 15.333589 -0.394052 4.908263 -7.651024 -1.688169 5.923028 -3.442983 -0.213907 13.358477 28.971555 56.896110 95.257038 15.436222 51.371589 30.787227 9.081837 -9.264051 10.504424 -2.163592 6.418855 -31.967691 25.901050 -65.821948 -103.929171 20.277286 -51.589833 -25.959932 12.544489 31.666214 -3.374105 12.403929 -14.870364 -9.602223 1.799251 -0.259908 3.319919 -4.314229 13.066907 0.040976 -0.154555 0.030314 14.793803 15.151752 17.403981 6.246087 -5.662584 0.004450 -3.426164 -2.793332 -16.870653 -0.008416 0.037409 -0.000229
-175.494991 82.278258 -66.954595 68.303466 -7.901922 -0.866437 -3.279275 4.578730 -0.171104 -0.125152 0.201040 0.004999 -0.204017 0.327745 0.007924 -2.787744 4.476955 0.007282 2.472460 15.439857 -0.382190 4.761033 -7.457151 -1.633759 5.901064 -3.450021 -0.177644 13.342969 28.997989 56.904750 95.247994 15.427617 51.403080 30.801601 9.061299 -9.265924 10.443402 -2.123930 6.539317 -31.932827 25.790639 -65.853591 -103.999683 20.258037 -51.581747 -25.964900 12.527924 31.514491 -3.360518 12.403514 -14.877267 -9.620226 1.795410 -0.264489 3.307825 -4.316813 13.069532 0.039813 -0.149108 0.032031 14.675818 15.155550 17.360305 6.343863 -5.650874 0.002441 -3.412939 -2.799493 -16.887171 -0.000783 0.040706 0.010300
-175.508617 82.275581 -66.977324 68.344673 -7.843370 -0.858340 -3.238075 4.532737 -0.200952 -0.121345 0.198494 0.003718 -0.197927 0.323778 0.005849 -2.729974 4.462314 -0.018010 2.393291 15.559792 -0.349882 4.597228 -7.238841 -1.539178 5.814374 -3.463244 -0.153019 13.421951 28.998100 56.995489 95.170160 15.454374 51.407758 30.828675 9.056130 -9.283720 10.356655 -1.926243 6.864606 -31.891602 25.490369 -65.896499 -104.104669 20.165615 -51.465316 -25.917363 12.511506 31.184028 -3.417448 12.348550 -14.895265 -9.599533 1.811776 -0.272088 3.300363 -4.329745 13.063156 0.037018 -0.143905 0.040173 14.475063 15.138774 17.308290 6.463680 -5.627089 -0.021761 -3.393682 -2.826368 -16.899954 0.029064 0.056762 0.027939
-175.513300 82.272817 -67.002642 68.334634 -7.795776 -0.824271 -3.181252 4.509582 -0.242528 -0.117672 0.195680 0.001627 -0.192054 0.319377 0.002448 -2.675903 4.442799 -0.062278 2.326634 15.692006 -0.319765 4.457537 -6.997024 -1.453188 5.772118 -3.477000 -0.124862 13.451340 28.999146 57.058112 95.155603 15.477585 51.449065 30.792718 9.049346 -9.319204 10.341757 -1.714212 7.151266 -31.653695 25.210370 -65.886547 -104.302340 20.090937 -51.488857 -25.903968 12.510650 30.868172 -3.452952 12.314541 -14.943048 -9.558201 1.797464 -0.275617 3.298920 -4.348337 13.060546 0.031266 -0.126199 0.041908 14.399364 15.131713 17.239056 6.556712 -5.627239 -0.027350 -3.408962 -2.831254 -16.905577 0.034241 0.057184 0.032899
-175.517013 82.270075 -67.029797 68.328898 -7.734668 -0.793101 -3.103167 4.484060 -0.276854 -0.113430 0.192199 0.000085 -0.185267 0.313920 -0.000059 -2.612594 4.417102 -0.094453 2.248207 15.827779 -0.313484 4.304881 -6.747901 -1.407542 5.697521 -3.471973 -0.117896 13.480167 28.984711 57.119964 95.138903 15.500870 51.461762 30.771516 9.054659 -9.316756 10.308395 -1.536536 7.394766 -31.541686 24.955655 -65.934547 -104.352833 20.061905 -51.451115 -25.968281 12.509465 30.710909 -3.518121 12.283971 -14.990582 -9.491527 1.736320 -0.282696 3.304637 -4.342843 13.070613 0.029879 -0.116694 0.036908 14.309635 15.114864 17.171136 6.635015 -5.626688 -0.042829 -3.379398 -2.834017 -16.903985 0.033021 0.060411 0.035877
-175.523977 82.266578 -67.055826 68.335564 -7.649748 -0.770194 -3.029000 4.447235 -0.306105 -0.109023 0.188318 -0.001312 -0.178211 0.307820 -0.002331 -2.546562 4.386453 -0.123961 2.176792 15.963080 -0.324162 4.171762 -6.498668 -1.396388 5.609021 -3.475122 -0.104287 13.506111 28.966740 57.180471 95.119559 15.515113 51.474540 30.774906 9.061863 -9.328425 10.256612 -1.397510 7.617196 -31.440247 24.752724 -65.997134 -104.418270 20.084752 -51.449159 -26.044281 12.488877 30.639987 -3.576229 12.233040 -15.029735 -9.465853 1.679249 -0.277272 3.320007 -4.334884 13.070807 0.030900 -0.110012 0.035415 14.220729 15.072263 17.103555 6.692871 -5.641271 -0.047281 -3.350103 -2.825603 -16.915690 0.033694 0.062838 0.040958
-175.537149 82.263694 -67.082143 68.380787 -7.540983 -0.745873 -2.976863 4.385203 -0.335385 -0.104844 0.184181 -0.002878 -0.171520 0.301301 -0.004884 -2.485092 4.350443 -0.158494 2.106498 16.099635 -0.334075 4.040620 -6.247045 -1.384450 5.501704 -3.481229 -0.081519 13.493840 28.938578 57.238523 95.116167 15.553489 51.509862 30.811975 9.089452 -9.304745 10.173208 -1.287387 7.818298 -31.357059 24.572078 -66.005255 -104.496341 20.061918 -51.416702 -26.095872 12.478580 30.530607 -3.668930 12.160253 -15.072410 -9.461456 1.620891 -0.272162 3.339785 -4.320854 13.073782 0.029547 -0.106789 0.032957 14.015810 15.013148 17.016189 6.814024 -5.639969 -0.064772 -3.337048 -2.832267 -16.927913 0.053300 0.069716 0.050841
-175.551369 82.257964 -67.101985 68.398322 -7.445688 -0.718980 -2.908232 4.348142 -0.367951 -0.100829 0.180244 -0.004506 -0.165084 0.295087 -0.007543 -2.424490 4.315747 -0.195620 2.064414 16.222552 -0.332026 3.958188 -6.020256 -1.361167 5.407024 -3.514140 -0.039765 13.512264 28.910345 57.284171 95.099709 15.606314 51.527933 30.850387 9.122954 -9.304501 10.117472 -1.195027 8.031112 -31.265499 24.375346 -65.994812 -104.591628 20.029707 -51.413936 -26.134229 12.483625 30.405670 -3.732020 12.089318 -15.108900 -9.459737 1.583376 -0.273068 3.361331 -4.326904 13.085941 0.023652 -0.093759 0.023897 13.897411 14.951288 16.944204 6.908559 -5.649969 -0.078631 -3.334776 -2.810342 -16.926982 0.052629 0.062008 0.046271
